<svg xmlns="http://www.w3.org/2000/svg" width="3522" height="1808" viewBox="0 0 3522 1808"><path fill="#fff" fill-rule="evenodd" d="M4042.651 1761.325c-6.243-92.312-18.085-184.16-35.463-275.036l-11.641-60.816-1914.002 366.387 1659.397-1021.426-32.457-52.73c-48.168-78.216-100.974-153.479-158.134-225.386l-38.542-48.466-1525.084 1212.839 995.97-1674.998-53.22-31.647c-79.482-47.237-161.757-89.608-246.371-126.88l-56.672-24.95-787.287 1788.268 106.114-1950.756-61.826-3.365c-92.138-4.996-184.494-4.42-276.563 1.725l-61.784 4.138 130.019 1941.002-812.641-1767.332-56.257 25.87c-83.526 38.431-164.674 81.834-243.005 129.977l-52.746 32.432 1022.305 1662.654-1544.01-1194.166-37.883 48.982c-56.485 73.065-108.498 149.479-155.754 228.826l-31.672 53.208 1674.543 996.706-1918.831-337.865-11.377 64.567c-15.74 90.29-26.088 181.438-30.989 272.958l-.788 14.776h4569.984l-3.333-49.493z" opacity=".401"/></svg>